<svg class="main-svg" xmlns="http://www.w3.org/2000/svg" xmlns:xlink="http://www.w3.org/1999/xlink" width="700" height="450" style="" viewBox="0 0 700 450"><rect x="0" y="0" width="700" height="450" style="fill: rgb(255, 255, 255); fill-opacity: 1;"/><defs id="defs-f5d52f"><g class="clips"><clipPath id="clipf5d52fxyplot" class="plotclip"><rect width="490" height="310"/></clipPath><clipPath class="axesclip" id="clipf5d52fx"><rect x="130" y="0" width="490" height="450"/></clipPath><clipPath class="axesclip" id="clipf5d52fy"><rect x="0" y="60" width="700" height="310"/></clipPath><clipPath class="axesclip" id="clipf5d52fxy"><rect x="130" y="60" width="490" height="310"/></clipPath></g><g class="gradients"/></defs><g class="bglayer"><rect class="bg" x="130" y="60" width="490" height="310" style="fill: rgb(229, 236, 246); fill-opacity: 1; stroke-width: 0;"/></g><g class="layer-below"><g class="imagelayer"/><g class="shapelayer"/></g><g class="cartesianlayer"><g class="subplot xy"><g class="layer-subplot"><g class="shapelayer"/><g class="imagelayer"/></g><g class="gridlayer"><g class="x"><path class="xgrid crisp" transform="translate(252.5,0)" d="M0,60v310" style="stroke: rgb(255, 255, 255); stroke-opacity: 1; stroke-width: 1px;"/><path class="xgrid crisp" transform="translate(375,0)" d="M0,60v310" style="stroke: rgb(255, 255, 255); stroke-opacity: 1; stroke-width: 1px;"/><path class="xgrid crisp" transform="translate(497.5,0)" d="M0,60v310" style="stroke: rgb(255, 255, 255); stroke-opacity: 1; stroke-width: 1px;"/></g><g class="y"><path class="ygrid crisp" transform="translate(0,350.75)" d="M130,0h490" style="stroke: rgb(255, 255, 255); stroke-opacity: 1; stroke-width: 1px;"/><path class="ygrid crisp" transform="translate(0,260.25)" d="M130,0h490" style="stroke: rgb(255, 255, 255); stroke-opacity: 1; stroke-width: 1px;"/><path class="ygrid crisp" transform="translate(0,169.75)" d="M130,0h490" style="stroke: rgb(255, 255, 255); stroke-opacity: 1; stroke-width: 1px;"/><path class="ygrid crisp" transform="translate(0,79.25)" d="M130,0h490" style="stroke: rgb(255, 255, 255); stroke-opacity: 1; stroke-width: 1px;"/></g></g><g class="zerolinelayer"/><path class="xlines-below"/><path class="ylines-below"/><g class="overlines-below"/><g class="xaxislayer-below"/><g class="yaxislayer-below"/><g class="overaxes-below"/><g class="plot" transform="translate(130, 60)" clip-path="url('#clipf5d52fxyplot')"><g class="scatterlayer mlayer"><g class="trace scatter trace707cc2" style="stroke-miterlimit: 2; opacity: 1;"><g class="fills"/><g class="errorbars"/><g class="lines"/><g class="points"><path class="point" transform="translate(245,290.75)" d="M3,0A3,3 0 1,1 0,-3A3,3 0 0,1 3,0Z" style="opacity: 1; stroke-width: 0px; fill: rgb(99, 110, 250); fill-opacity: 1;"/><path class="point" transform="translate(245,200.25)" d="M3,0A3,3 0 1,1 0,-3A3,3 0 0,1 3,0Z" style="opacity: 1; stroke-width: 0px; fill: rgb(99, 110, 250); fill-opacity: 1;"/><path class="point" transform="translate(245,109.75)" d="M3,0A3,3 0 1,1 0,-3A3,3 0 0,1 3,0Z" style="opacity: 1; stroke-width: 0px; fill: rgb(99, 110, 250); fill-opacity: 1;"/><path class="point" transform="translate(245,19.25)" d="M3,0A3,3 0 1,1 0,-3A3,3 0 0,1 3,0Z" style="opacity: 1; stroke-width: 0px; fill: rgb(99, 110, 250); fill-opacity: 1;"/></g><g class="text"/></g></g></g><g class="overplot"/><path class="xlines-above crisp" d="M0,0" style="fill: none;"/><path class="ylines-above crisp" d="M0,0" style="fill: none;"/><g class="overlines-above"/><g class="xaxislayer-above"><g class="xtick"><text text-anchor="middle" x="0" y="389" transform="translate(130,0)" style="font-family: 'Courier New', monospace; font-size: 18px; fill: rgb(42, 63, 95); fill-opacity: 1; white-space: pre;">12</text></g><g class="xtick"><text text-anchor="middle" x="0" y="389" transform="translate(252.5,0)" style="font-family: 'Courier New', monospace; font-size: 18px; fill: rgb(42, 63, 95); fill-opacity: 1; white-space: pre;">12.5</text></g><g class="xtick"><text text-anchor="middle" x="0" y="389" transform="translate(375,0)" style="font-family: 'Courier New', monospace; font-size: 18px; fill: rgb(42, 63, 95); fill-opacity: 1; white-space: pre;">13</text></g><g class="xtick"><text text-anchor="middle" x="0" y="389" transform="translate(497.5,0)" style="font-family: 'Courier New', monospace; font-size: 18px; fill: rgb(42, 63, 95); fill-opacity: 1; white-space: pre;">13.5</text></g><g class="xtick"><text text-anchor="middle" x="0" y="389" transform="translate(620,0)" style="font-family: 'Courier New', monospace; font-size: 18px; fill: rgb(42, 63, 95); fill-opacity: 1; white-space: pre;">14</text></g></g><g class="yaxislayer-above"><g class="ytick"><text text-anchor="end" x="129" y="6.3" transform="translate(0,350.75)" style="font-family: 'Courier New', monospace; font-size: 18px; fill: rgb(42, 63, 95); fill-opacity: 1; white-space: pre;">R20.2.1</text></g><g class="ytick"><text text-anchor="end" x="129" y="6.3" transform="translate(0,260.25)" style="font-family: 'Courier New', monospace; font-size: 18px; fill: rgb(42, 63, 95); fill-opacity: 1; white-space: pre;">R20.1.2</text></g><g class="ytick"><text text-anchor="end" x="129" y="6.3" transform="translate(0,169.75)" style="font-family: 'Courier New', monospace; font-size: 18px; fill: rgb(42, 63, 95); fill-opacity: 1; white-space: pre;">R20.1.1</text></g><g class="ytick"><text text-anchor="end" x="129" y="6.3" transform="translate(0,79.25)" style="font-family: 'Courier New', monospace; font-size: 18px; fill: rgb(42, 63, 95); fill-opacity: 1; white-space: pre;">R19.12.1</text></g></g><g class="overaxes-above"/></g></g><g class="polarlayer"/><g class="ternarylayer"/><g class="geolayer"/><g class="funnelarealayer"/><g class="pielayer"/><g class="treemaplayer"/><g class="sunburstlayer"/><g class="glimages"/><defs id="topdefs-f5d52f"><g class="clips"/></defs><g class="layer-above"><g class="imagelayer"/><g class="shapelayer"/></g><g class="infolayer"><g class="g-gtitle"><text class="gtitle" x="35" y="30" text-anchor="start" dy="0em" style="font-family: 'Courier New', monospace; font-size: 25px; fill: rgb(42, 63, 95); opacity: 1; font-weight: normal; white-space: pre;">Number of Error Prone Test Cases Per Releases</text></g><g class="g-xtitle"><text class="xtitle" x="375" y="424.4" text-anchor="middle" style="font-family: 'Courier New', monospace; font-size: 22px; fill: rgb(42, 63, 95); opacity: 1; font-weight: normal; white-space: pre;">Number of Error Prone Test Cases</text></g><g class="g-ytitle" transform="translate(5.822265625,0)"><text class="ytitle" transform="rotate(-90,12.178124999999994,215)" x="12.178124999999994" y="215" text-anchor="middle" style="font-family: 'Courier New', monospace; font-size: 22px; fill: rgb(42, 63, 95); opacity: 1; font-weight: normal; white-space: pre;">Releases</text></g></g></svg>